<?xml version="1.0" encoding="UTF-8"?>
<svg version="1.1" xmlns="http://www.w3.org/2000/svg" width="512" height="512">
<path d="M0 0 C0.67194397 -0.0049649 1.34388794 -0.00992981 2.03619385 -0.01504517 C4.2588402 -0.029647 6.48141512 -0.03646641 8.70410156 -0.04199219 C10.25246176 -0.04774646 11.80082195 -0.05350416 13.34918213 -0.05926514 C16.59737479 -0.06977032 19.84554274 -0.07561575 23.09375 -0.07910156 C27.24419204 -0.08457708 31.3943045 -0.10858671 35.5446434 -0.13707352 C38.74465875 -0.15575417 41.94459569 -0.16090843 45.14466095 -0.16243744 C46.67399136 -0.16545363 48.20332072 -0.1734471 49.73259735 -0.18662262 C51.87927334 -0.20379308 54.02515708 -0.20177641 56.171875 -0.1953125 C57.39082458 -0.19895813 58.60977417 -0.20260376 59.86566162 -0.20635986 C64.64722717 0.29871559 68.62324854 1.65226762 72.30566406 4.87988281 C73.005625 5.76160156 73.005625 5.76160156 73.71972656 6.66113281 C74.44289062 7.54285156 74.44289062 7.54285156 75.18066406 8.44238281 C77.73387332 12.21222198 77.42776112 15.7603012 77.34472656 20.16113281 C77.90911942 20.15225037 78.47351227 20.14336792 79.05500793 20.13421631 C84.97691629 20.04510521 90.89863144 19.98513669 96.82104492 19.94140625 C99.02555082 19.92140195 101.23000442 19.89418959 103.43432617 19.859375 C106.6194354 19.81036223 109.80383772 19.78805154 112.98925781 19.77050781 C113.9605513 19.74986267 114.93184479 19.72921753 115.93257141 19.70794678 C124.46137338 19.70520597 132.83738177 21.42512453 139.28222656 27.34863281 C145.37873802 34.43581761 146.93947793 41.49507757 146.82574463 50.65846252 C146.82916233 51.67887333 146.83258003 52.69928414 146.83610129 53.75061649 C146.84265972 57.15019747 146.8207371 60.54897879 146.79882812 63.94848633 C146.79769921 66.39313234 146.79833436 68.8377797 146.80059814 71.28242493 C146.80150732 76.53545848 146.79020454 81.78831314 146.76764679 87.04129219 C146.73505403 94.6360737 146.72471237 102.23075926 146.71969482 109.82560312 C146.71095354 122.14949644 146.68436974 134.47328348 146.64648438 146.79711914 C146.60973401 158.76423615 146.58143709 170.73132423 146.56445312 182.69848633 C146.56340223 183.43689672 146.56235134 184.17530711 146.5612686 184.93609358 C146.55604822 188.64070736 146.55099344 192.34532134 146.54602098 196.04993546 C146.50459529 226.75374629 146.43307321 257.45741903 146.34472656 288.16113281 C157.56472656 288.16113281 168.78472656 288.16113281 180.34472656 288.16113281 C180.32901611 284.69838867 180.31330566 281.23564453 180.29711914 277.66796875 C180.24746078 266.24066591 180.21413986 254.81334819 180.18929005 243.38596725 C180.17381973 236.45598604 180.1527272 229.52610702 180.1184082 222.59619141 C180.08531843 215.91130412 180.06788449 209.22654508 180.06009483 202.54157257 C180.05454196 199.98822608 180.0436989 197.43488555 180.02753639 194.88158417 C180.00583205 191.31155216 180.00275677 187.74196212 180.00415039 184.171875 C179.98797165 182.58044426 179.98797165 182.58044426 179.97146606 180.9568634 C179.97559006 179.98373703 179.97971405 179.01061066 179.98396301 178.00799561 C179.98119763 177.16363323 179.97843225 176.31927086 179.97558308 175.44932175 C180.43517802 172.60045649 181.37319761 171.24470324 183.34472656 169.16113281 C186.30279873 168.17510876 188.22564222 168.03321698 191.31016541 168.02742004 C192.33503555 168.02315506 193.3599057 168.01889008 194.41583252 168.01449585 C195.53955261 168.01494904 196.66327271 168.01540222 197.82104492 168.01586914 C199.00499344 168.01251053 200.18894196 168.00915192 201.4087677 168.00569153 C204.6566989 167.9978126 207.90459176 167.99451358 211.15253139 167.99387574 C213.86380084 167.99292618 216.57506415 167.98924737 219.28633124 167.98570365 C225.68267125 167.97756061 232.07899719 167.97511929 238.4753418 167.97583008 C245.07424746 167.97643101 251.67307141 167.96587589 258.27195638 167.95008641 C263.93742919 167.93701327 269.60287528 167.93164608 275.26836306 167.93228549 C278.65213777 167.93254052 282.03583985 167.92968638 285.41959953 167.91910744 C289.19280716 167.90934229 292.96580285 167.91217186 296.73901367 167.91821289 C297.86070953 167.91259338 298.9824054 167.90697388 300.13809204 167.90118408 C301.679627 167.90747581 301.679627 167.90747581 303.25230408 167.91389465 C304.1443904 167.91334989 305.03647673 167.91280512 305.95559597 167.91224384 C308.6041189 168.18815515 310.14686395 168.65931701 312.34472656 170.16113281 C314.06382286 172.99963208 314.5956383 175.12067006 314.60199547 178.41876125 C314.60844436 179.26662368 314.61489325 180.11448611 314.62153757 180.98804134 C314.61689176 182.37786263 314.61689176 182.37786263 314.6121521 183.79576111 C314.61668321 184.78387065 314.62121433 185.77198019 314.62588274 186.79003245 C314.63857145 190.11031293 314.63690349 193.43043033 314.63525391 196.75073242 C314.6412363 199.12741813 314.64804117 201.50410189 314.65560913 203.88078308 C314.6714653 209.67186012 314.67771871 215.46288744 314.67883389 221.2539851 C314.67978418 225.9606609 314.68389353 230.66732327 314.69023514 235.37399483 C314.70784697 248.71672261 314.71707396 262.05941822 314.71557419 275.40215772 C314.71549428 276.12143542 314.71541437 276.84071312 314.71533203 277.58178711 C314.71525027 278.30194233 314.71516851 279.02209754 314.71508427 279.76407564 C314.71427111 291.43904571 314.73341638 303.11388684 314.76160876 314.7888196 C314.79032459 326.77502112 314.80414982 338.76115973 314.80242121 350.74739653 C314.80175692 357.47742983 314.80726653 364.20732791 314.82877731 370.93733025 C314.84809441 377.26485178 314.84832881 383.59208718 314.83374405 389.91961861 C314.83164684 392.24444622 314.83641076 394.56929144 314.84846497 396.89408875 C314.86383384 400.06290592 314.85466418 403.23072614 314.83920288 406.39952087 C314.84949001 407.32383768 314.85977713 408.24815448 314.87037599 409.20048088 C314.82850613 413.07204553 314.56501661 415.6841419 312.92631817 419.23239231 C308.96829028 422.18948618 305.36645355 421.84656573 300.54478455 421.78259277 C299.53892966 421.7889816 298.53307478 421.79537042 297.49673945 421.80195284 C294.11615891 421.81724995 290.73674146 421.79670943 287.35620117 421.77636719 C284.93686026 421.77986692 282.51752163 421.78552382 280.09819031 421.79318237 C274.20339794 421.80597647 268.30891865 421.79546836 262.41417664 421.77406913 C255.55227057 421.75007196 248.69044358 421.75177267 241.82850487 421.75437504 C229.58733989 421.75806604 217.34633723 421.73723186 205.10522461 421.703125 C193.22139382 421.67002581 181.33773337 421.65586781 169.45385742 421.66210938 C156.51801686 421.66887001 143.58224769 421.66642303 130.64641768 421.64674997 C129.96270205 421.64571049 129.27898642 421.644671 128.57455214 421.64360002 C127.20127277 421.64150909 125.82799343 421.63939812 124.45471413 421.63726684 C119.66908764 421.63036534 114.88348313 421.6297029 110.09785271 421.63114929 C103.66037457 421.63273744 97.22305803 421.61787151 90.78563118 421.59192276 C88.41805132 421.58473888 86.05044972 421.58268794 83.68286133 421.5860405 C80.46091121 421.5897337 77.23956546 421.57508287 74.01768494 421.55554199 C73.07197866 421.56086992 72.12627238 421.56619784 71.15190834 421.57168722 C70.29148668 421.56263058 69.43106501 421.55357394 68.54456997 421.54424286 C67.80058781 421.54267166 67.05660565 421.54110045 66.29007858 421.53948164 C63.75220531 421.04589417 62.87032628 420.22547997 61.34472656 418.16113281 C61.06411357 415.31145643 60.96587365 412.68295058 61.00415039 409.83422852 C61.00371231 408.9852298 61.00327423 408.13623108 61.00282288 407.26150513 C61.00491421 404.4530748 61.02826143 401.6452402 61.05175781 398.83691406 C61.05735254 396.89064358 61.06162322 394.94436887 61.06462097 392.99809265 C61.07607943 387.87369131 61.10555528 382.74954476 61.13873291 377.62524414 C61.1694122 372.39700772 61.18312173 367.16873016 61.19824219 361.94042969 C61.23042397 351.68055207 61.28163246 341.42086362 61.34472656 331.16113281 C60.67880556 331.16574178 60.01288456 331.17035074 59.32678413 331.17509937 C43.0919163 331.28572384 26.85716852 331.36835961 10.62201118 331.42019367 C2.77065585 331.44592926 -5.08044724 331.48099016 -12.93164062 331.53833008 C-19.77811934 331.58830821 -26.62441529 331.62045758 -33.47107136 331.63157529 C-37.09338019 331.63806989 -40.71516637 331.65323507 -44.33730698 331.6897831 C-48.38997921 331.73034013 -52.44175415 331.73107308 -56.49462891 331.72875977 C-57.68362289 331.74673615 -58.87261688 331.76471252 -60.09764099 331.78323364 C-68.79763606 331.72965137 -75.38606092 329.77354341 -82.09277344 324.09863281 C-89.17315476 315.31895997 -89.8052803 307.55045053 -89.79571533 296.5223999 C-89.79868645 295.45035474 -89.80165758 294.37830958 -89.80471873 293.2737782 C-89.81339094 289.6812088 -89.81491273 286.08867278 -89.81640625 282.49609375 C-89.82103543 279.92033314 -89.82606023 277.34457321 -89.83145142 274.76881409 C-89.84501057 267.77078897 -89.85105554 260.77276961 -89.85546207 253.77473354 C-89.8582283 249.40228339 -89.86246632 245.02983544 -89.86696625 240.65738678 C-89.87915521 228.54280613 -89.88945561 216.42822724 -89.89284134 204.31364059 C-89.89306091 203.53888518 -89.89328047 202.76412977 -89.89350669 201.96589692 C-89.89372497 201.18932879 -89.89394325 200.41276066 -89.89416814 199.61266017 C-89.8946116 198.03913673 -89.89505816 196.46561328 -89.89550781 194.89208984 C-89.89572924 194.11157427 -89.89595067 193.3310587 -89.89617881 192.52689114 C-89.90012611 179.88224259 -89.91757973 167.2376517 -89.94086733 154.59302542 C-89.96460296 141.5999023 -89.97704418 128.6068081 -89.97820926 115.61366296 C-89.97912472 108.32293318 -89.98484455 101.03227855 -90.00302887 93.74156952 C-90.02007556 86.88301278 -90.02166598 80.02460071 -90.01288986 73.16602898 C-90.0121194 70.6514059 -90.01646332 68.13677517 -90.02634811 65.6221714 C-90.03906933 62.18387836 -90.03318935 58.7460901 -90.02276611 55.30780029 C-90.03082252 54.31770202 -90.03887892 53.32760375 -90.04717946 52.30750251 C-89.98322257 43.25876421 -88.26433736 35.07770176 -82.46777344 27.91894531 C-76.96221646 22.57950428 -70.37270432 20.02766589 -62.79492188 20.04760742 C-61.83422791 20.04768295 -60.87353394 20.04775848 -59.88372803 20.0478363 C-58.85443176 20.05299759 -57.8251355 20.05815887 -56.76464844 20.06347656 C-55.70489807 20.06489151 -54.64514771 20.06630646 -53.55328369 20.06776428 C-50.17058482 20.073359 -46.78795228 20.08591056 -43.40527344 20.09863281 C-41.11100356 20.10364849 -38.81673265 20.10821128 -36.52246094 20.11230469 C-30.90004249 20.1233267 -25.27766271 20.1400596 -19.65527344 20.16113281 C-19.66896973 18.88592773 -19.68266602 17.61072266 -19.69677734 16.296875 C-19.74718046 11.60404809 -18.65759237 8.77860578 -15.65527344 5.16113281 C-10.34933706 1.04632501 -6.61863874 0.03717166 0 0 Z " fill="#203040" transform="translate(143.6552734375,34.8388671875)"/>
<path d="M0 0 C1.55420906 0.00636726 1.55420906 0.00636726 3.13981628 0.01286316 C6.44113417 0.0296227 9.74183612 0.06727065 13.04296875 0.10546875 C15.28449638 0.12051908 17.5260336 0.13420687 19.76757812 0.14648438 C25.25541761 0.17951727 30.74289917 0.22968982 36.23046875 0.29296875 C36.35454102 0.90350098 36.47861328 1.5140332 36.60644531 2.14306641 C36.7762793 2.9479248 36.94611328 3.7527832 37.12109375 4.58203125 C37.28641602 5.37818848 37.45173828 6.1743457 37.62207031 6.99462891 C38.83444371 11.57459808 40.89339757 14.47693258 44.91564941 16.93177795 C48.69333593 18.48303961 51.44195326 18.67961967 55.51757812 18.69702148 C56.57245171 18.70731636 56.57245171 18.70731636 57.64863586 18.71781921 C59.95737285 18.7360182 62.26542591 18.73226038 64.57421875 18.7265625 C66.18794982 18.73112718 67.80167895 18.73643361 69.41540527 18.7424469 C72.79117755 18.75136407 76.16671306 18.74897035 79.54248047 18.73901367 C83.86012817 18.72751731 88.17695881 18.74775215 92.49449921 18.77693081 C95.82490188 18.79530902 99.15510925 18.79499731 102.48554993 18.78929329 C104.07710416 18.78914032 105.66867183 18.79516479 107.26017761 18.80758476 C109.48842127 18.82252706 111.71516155 18.81179673 113.94335938 18.79467773 C115.20877563 18.79451157 116.47419189 18.7943454 117.7779541 18.79417419 C122.70359637 18.07911315 125.66518703 15.96350803 129.03125 12.37109375 C130.44318905 9.92434596 130.94261231 7.82197561 131.41796875 5.04296875 C131.57652344 4.1509375 131.73507813 3.25890625 131.8984375 2.33984375 C132.00800781 1.664375 132.11757812 0.98890625 132.23046875 0.29296875 C138.83236293 0.21684019 145.43414369 0.16433592 152.03637695 0.12817383 C154.28186269 0.11309693 156.52731904 0.09263222 158.77270508 0.06665039 C162.00218974 0.03021957 165.23128469 0.0132312 168.4609375 0 C169.4631987 -0.01548386 170.4654599 -0.03096771 171.49809265 -0.04692078 C178.06623236 -0.04850306 181.46933114 0.67500713 186.33021164 5.2838316 C189.05352604 9.59631463 188.77333312 13.22991422 188.71148682 18.23335266 C188.71490452 19.24217867 188.71832222 20.25100467 188.72184348 21.29040116 C188.72843822 24.67476441 188.70641916 28.05833663 188.68457031 31.44262695 C188.68344218 33.86697877 188.68407502 36.29133196 188.68634033 38.71568298 C188.68725155 43.93713864 188.67589774 49.15841503 188.65338898 54.37981606 C188.62086647 61.92904357 188.61046173 69.47817443 188.60543701 77.02746441 C188.59668473 89.2759328 188.57007103 101.52429457 188.53222656 113.77270508 C188.49550471 125.67016059 188.46719381 137.56758714 188.45019531 149.46508789 C188.44914442 150.19857519 188.44809352 150.93206248 188.44701079 151.68777666 C188.4417906 155.36750484 188.43673577 159.04723322 188.43176317 162.72696173 C188.39030324 193.2490404 188.31955913 223.77098977 188.23046875 254.29296875 C187.39774948 254.29883499 186.56503021 254.30470123 185.70707703 254.31074524 C177.8641164 254.36861984 170.02144216 254.4406661 162.17875957 254.52868366 C158.14661846 254.57343463 154.11457948 254.61268003 150.08227539 254.6394043 C146.19173712 254.66539057 142.30159092 254.70575898 138.41129494 254.75615501 C136.92617477 254.77285556 135.44098674 254.78434998 133.95578575 254.79058266 C131.8772497 254.80018965 129.7997239 254.82820496 127.72143555 254.8605957 C126.53784958 254.87169876 125.35426361 254.88280182 124.1348114 254.89424133 C121.28073548 255.08471084 121.28073548 255.08471084 119.35676575 256.45988464 C117.77563361 259.03322737 117.79512817 261.04538742 117.71875 264.0546875 C117.68330078 265.17294922 117.64785156 266.29121094 117.61132812 267.44335938 C117.57749023 269.19422852 117.57749023 269.19422852 117.54296875 270.98046875 C117.50880859 272.15931641 117.47464844 273.33816406 117.43945312 274.55273438 C117.3568895 277.466051 117.28776553 280.37906341 117.23046875 283.29296875 C100.51464074 283.40982387 83.79894542 283.49796736 67.08280754 283.55202961 C59.32101657 283.57780006 51.55947953 283.61292802 43.79785156 283.67016602 C37.03198294 283.72003697 30.26629825 283.75226821 23.50025094 283.76341122 C19.91831002 283.7699239 16.33689524 283.78520512 12.75512314 283.82161903 C8.75431839 283.86196227 4.7544255 283.86291585 0.75341797 283.8605957 C-0.43125565 283.87857208 -1.61592926 283.89654846 -2.83650208 283.91506958 C-11.79481827 283.85876999 -11.79481827 283.85876999 -15.42721558 281.00749207 C-18.68247754 277.23494996 -20.01801112 274.67116503 -20.02680016 269.6789341 C-20.03324905 268.75157027 -20.03969794 267.82420644 -20.04634225 266.86874068 C-20.04169645 265.34570486 -20.04169645 265.34570486 -20.03695679 263.79190063 C-20.0414879 262.71057495 -20.04601901 261.62924927 -20.05068743 260.51515615 C-20.06338245 256.87936447 -20.06170776 253.2437216 -20.06005859 249.60791016 C-20.06604063 247.00624905 -20.07284542 244.40458972 -20.08041382 241.80293274 C-20.09702948 235.4620749 -20.10252361 229.12125424 -20.10363857 222.78037645 C-20.10458875 217.62653195 -20.10869754 212.47269972 -20.11503983 207.3188591 C-20.13265356 192.70843442 -20.14187846 178.09803912 -20.14037888 163.48760374 C-20.14029897 162.69988786 -20.14021905 161.91217199 -20.14013672 161.10058594 C-20.14005496 160.31190889 -20.1399732 159.52323185 -20.13988896 158.7106555 C-20.13907595 145.9273565 -20.15821682 133.14417529 -20.18641345 120.36091037 C-20.21513365 107.23678233 -20.22895423 94.11271176 -20.2272259 80.9885515 C-20.22656171 73.61965293 -20.23206658 66.25087787 -20.253582 58.8820076 C-20.2736838 51.95286222 -20.27312894 45.02398197 -20.25854874 38.09482384 C-20.25645228 35.54949628 -20.26121099 33.00415262 -20.27326965 30.45885277 C-20.28864898 26.98826011 -20.27946137 23.5185765 -20.26400757 20.04800415 C-20.27429469 19.03710838 -20.28458182 18.02621261 -20.29518068 16.98468363 C-20.23707877 11.09350686 -19.64538673 7.80581577 -15.76953125 3.29296875 C-11.1894338 -0.80149947 -5.80593267 -0.08969541 0 0 Z " fill="#CBCBCB" transform="translate(87.76953125,68.70703125)"/>
<path d="M0 0 C9.24 0 18.48 0 28 0 C28 35.31 28 70.62 28 107 C-6.98 107 -41.96 107 -78 107 C-78 72.02 -78 37.04 -78 1 C-69.09 1 -60.18 1 -51 1 C-50.97421875 3.62710937 -50.9484375 6.25421875 -50.921875 8.9609375 C-50.88334253 11.53607398 -50.83821874 14.11101774 -50.79248047 16.68603516 C-50.76444451 18.46067942 -50.7431445 20.23544453 -50.72900391 22.01025391 C-50.74440945 38.03755223 -50.74440945 38.03755223 -43.5625 52 C-37.72993023 56.55224958 -32.1647433 56.33584728 -25.0625 56.3125 C-24.08603516 56.32861328 -23.10957031 56.34472656 -22.10351562 56.36132812 C-16.64684167 56.36502756 -12.69290519 56.10361462 -8 53 C-1.65304778 46.65304778 -0.55377724 39.01367993 -0.48828125 30.46875 C-0.46135445 29.15396667 -0.46135445 29.15396667 -0.43388367 27.81262207 C-0.38015491 25.04179547 -0.34600627 22.27113735 -0.3125 19.5 C-0.27929379 17.60935174 -0.24480112 15.71872561 -0.20898438 13.828125 C-0.12205282 9.21873079 -0.06166616 4.61007673 0 0 Z " fill="#EDAF6D" transform="translate(416,336)"/>
<path d="M0 0 C9.24 0 18.48 0 28 0 C28.02578125 2.92746094 28.0515625 5.85492188 28.078125 8.87109375 C28.11662317 11.73080744 28.16175829 14.59034555 28.20751953 17.44995117 C28.2356095 19.42545072 28.25688314 21.40106015 28.27099609 23.37670898 C28.29259233 26.2295713 28.33932634 29.08112891 28.390625 31.93359375 C28.39185364 32.80584091 28.39308228 33.67808807 28.39434814 34.57676697 C28.54982112 41.20132117 29.89309016 47.58620525 34.48223877 52.62864685 C40.19124938 57.58293512 45.51932187 57.27212986 52.6875 57.375 C53.65623047 57.41238281 54.62496094 57.44976562 55.62304688 57.48828125 C62.34419088 57.57008016 66.88349076 56.50220353 72 52 C73.66840232 50.0297745 73.66840232 50.0297745 74.4375 47.9375 C74.86869141 46.96103516 74.86869141 46.96103516 75.30859375 45.96484375 C76.50254882 42.57185279 77.12561126 39.47240605 77.20532227 35.87402344 C77.22526749 35.07349548 77.24521271 34.27296753 77.26576233 33.44818115 C77.28247482 32.59387512 77.29918732 31.73956909 77.31640625 30.859375 C77.3475779 29.53610199 77.3475779 29.53610199 77.37937927 28.18609619 C77.44464867 25.37414169 77.50365447 22.56209555 77.5625 19.75 C77.60570673 17.84113644 77.64932171 15.93228207 77.69335938 14.0234375 C77.8010735 9.34905082 77.90031495 4.67459239 78 0 C87.24 0 96.48 0 106 0 C106 34.98 106 69.96 106 106 C71.02 106 36.04 106 0 106 C0 71.02 0 36.04 0 0 Z " fill="#EEAF6D" transform="translate(338,217)"/>
<path d="M0 0 C9.24 0 18.48 0 28 0 C28.03738281 2.63871094 28.07476562 5.27742188 28.11328125 7.99609375 C28.15961444 10.577798 28.21080497 13.159364 28.26245117 15.7409668 C28.29551638 17.52245543 28.32360442 19.30404418 28.34643555 21.08569336 C28.38032307 23.66042386 28.43265143 26.2342518 28.48828125 28.80859375 C28.49467117 29.59334579 28.5010611 30.37809784 28.50764465 31.18663025 C28.73145766 39.78119786 30.85885781 46.85885781 37 53 C41.87023069 56.04332347 47.25091903 55.36835931 52.8125 55.375 C53.88048828 55.39949219 54.94847656 55.42398438 56.04882812 55.44921875 C62.60032722 55.47352858 66.73441617 55.01086639 72 51 C73.77576623 49.13101607 73.77576623 49.13101607 74.875 47.0625 C75.26429688 46.41410156 75.65359375 45.76570313 76.0546875 45.09765625 C78.33983505 40.02689495 78.20310963 34.65913251 78.31640625 29.19921875 C78.33718735 28.36284378 78.35796844 27.52646881 78.37937927 26.66474915 C78.44451034 24.00574579 78.5035895 21.34664772 78.5625 18.6875 C78.60571992 16.87954769 78.6493353 15.07160478 78.69335938 13.26367188 C78.80089485 8.84254337 78.90023865 4.42133806 79 0 C87.91 0 96.82 0 106 0 C106 34.65 106 69.3 106 105 C71.02 105 36.04 105 0 105 C0 70.35 0 35.7 0 0 Z " fill="#EEB06D" transform="translate(218,337)"/>
<path d="M0 0 C2.24524726 2.22219089 2.94353026 3.57410403 3.36076355 6.72088623 C3.35410172 7.76013245 3.34743988 8.79937866 3.34057617 9.87011719 C3.34034958 11.05103943 3.34012299 12.23196167 3.33988953 13.44866943 C3.32440567 14.71857727 3.30892181 15.98848511 3.29296875 17.296875 C3.28872391 18.60078186 3.28447906 19.90468872 3.28010559 21.24810791 C3.26867549 24.70718772 3.23922477 28.16588698 3.20599365 31.62481689 C3.1752528 35.1573767 3.16142714 38.6900001 3.14648438 42.22265625 C3.11594594 49.14877311 3.05722342 56.07384625 3 63 C11.91 62.67 20.82 62.34 30 62 C27.525 60.02 27.525 60.02 25 58 C24.07514034 55.00713118 24.54139057 53.21026599 25 50 C26.625 48 26.625 48 29 47 C33.98636145 46.53802311 36.77773877 47.59846362 41.0625 50.10546875 C42.75246094 51.08676758 42.75246094 51.08676758 44.4765625 52.08789062 C45.05567383 52.43311768 45.63478516 52.77834473 46.23144531 53.1340332 C47.98739122 54.17998938 49.75395074 55.20566957 51.5234375 56.22851562 C62.75513638 62.81460908 62.75513638 62.81460908 67 67 C67.6875 70 67.6875 70 67 73 C62.37282563 78.23257473 56.84969385 81.30458049 50.84399414 84.73095703 C49.06349217 85.74943246 47.29434723 86.78584882 45.52539062 87.82421875 C44.39423828 88.47519531 43.26308594 89.12617188 42.09765625 89.796875 C41.07164307 90.38823242 40.04562988 90.97958984 38.98852539 91.58886719 C35.16974828 93.39203128 31.7773271 94.62446628 27.6875 93.1875 C26 92 26 92 25 90 C24.6875 86.625 24.6875 86.625 25 83 C27.01953125 80.7734375 27.01953125 80.7734375 29 79 C27.99622314 78.98018066 26.99244629 78.96036133 25.95825195 78.93994141 C22.22135034 78.86366251 18.48482683 78.77498014 14.74829102 78.68261719 C13.1334583 78.64441928 11.51854316 78.60955055 9.90356445 78.578125 C7.57733783 78.53227391 5.25167408 78.47431416 2.92578125 78.4140625 C2.20787918 78.40251129 1.48997711 78.39096008 0.75032043 78.37905884 C-3.21193375 78.26333705 -6.56795254 78.0734713 -10 76 C-12.00415859 72.10058601 -12.25719058 68.79899261 -12.2746582 64.453125 C-12.28419022 63.14827148 -12.29372223 61.84341797 -12.30354309 60.49902344 C-12.30328167 59.08268202 -12.30234468 57.66634058 -12.30078125 56.25 C-12.30467101 54.78938679 -12.30900626 53.3287747 -12.31376648 51.86816406 C-12.32121501 48.81181159 -12.32094697 45.75557468 -12.31567383 42.69921875 C-12.30987488 38.78849223 -12.32682662 34.87823866 -12.3500185 30.96759033 C-12.36476952 27.95293426 -12.36562581 24.93839182 -12.36250877 21.92370605 C-12.3630211 20.48204612 -12.36824224 19.04037968 -12.37832069 17.59875488 C-12.39069561 15.58149855 -12.38194401 13.5641463 -12.37231445 11.546875 C-12.37294388 10.40057617 -12.3735733 9.25427734 -12.3742218 8.07324219 C-11.95637073 4.64170093 -11.05100047 2.75730618 -9 0 C-5.8168485 -1.59157575 -3.38676935 -0.77242108 0 0 Z " fill="#1D2E3E" transform="translate(113,383)"/>
<path d="M0 0 C1.9375 1.625 1.9375 1.625 3 4 C3.0625 7.5 3.0625 7.5 2 11 C-1.06640625 13.21875 -1.06640625 13.21875 -4 15 C-2.8039917 15.0093457 -1.6079834 15.01869141 -0.37573242 15.02832031 C4.05824138 15.06816814 8.49151748 15.13391191 12.92504883 15.20751953 C14.84455407 15.23575948 16.76417625 15.25695895 18.68383789 15.27099609 C21.44217938 15.29238411 24.19911038 15.33901133 26.95703125 15.390625 C27.81649857 15.39185364 28.67596588 15.39308228 29.56147766 15.39434814 C30.36208115 15.41406677 31.16268463 15.4337854 31.98754883 15.45410156 C33.04344963 15.46742523 33.04344963 15.46742523 34.12068176 15.48101807 C36 16 36 16 37.7255249 17.60809326 C39.4288236 20.80480667 39.38806164 23.19791848 39.40405273 26.81640625 C39.41091599 27.49331512 39.41777924 28.170224 39.42485046 28.86764526 C39.44311388 31.0994784 39.4392824 33.33060836 39.43359375 35.5625 C39.43815542 37.11662016 39.44346095 38.67073831 39.44947815 40.22485352 C39.45840802 43.47973839 39.45598724 46.73437789 39.44604492 49.98925781 C39.43454823 54.15919862 39.45477718 58.3282935 39.48396206 62.49812317 C39.50231153 65.70663831 39.5020343 68.91495019 39.49632454 72.12350464 C39.49617121 73.66089058 39.50222551 75.1982902 39.51461601 76.73562622 C39.52950373 78.88548833 39.51886847 81.03378062 39.50170898 83.18359375 C39.50154282 84.40618896 39.50137665 85.62878418 39.50120544 86.88842773 C38.90404948 90.59567786 37.98324302 91.78441347 35 94 C31.68834773 94.48294929 29.80194095 94.42939262 26.84088135 92.84391785 C25 91 25 91 24.51898193 88.32344055 C24.5323056 86.70794563 24.5323056 86.70794563 24.54589844 85.05981445 C24.54620056 83.83877518 24.54650269 82.6177359 24.54681396 81.35969543 C24.56745911 80.04087875 24.58810425 78.72206207 24.609375 77.36328125 C24.61683674 75.99994231 24.62252999 74.63659264 24.62652588 73.27323914 C24.64178791 69.68743196 24.68107328 66.1022744 24.7253418 62.51672363 C24.76628302 58.85694323 24.78475357 55.19705457 24.8046875 51.53710938 C24.845446 44.35749947 24.92373319 37.17967264 25 30 C15.76 30.33 6.52 30.66 -3 31 C-1.35 31.99 0.3 32.98 2 34 C3.0625 37.375 3.0625 37.375 3 41 C1.4375 43.9375 1.4375 43.9375 -1 46 C-6.01937597 46.59192641 -8.978119 45.30884628 -13.31640625 42.859375 C-13.89535141 42.53592102 -14.47429657 42.21246704 -15.07078552 41.87921143 C-16.28843424 41.19578844 -17.50268185 40.50627381 -18.71362305 39.81103516 C-20.55373545 38.75502981 -22.40346155 37.71786765 -24.25585938 36.68359375 C-38.48001101 28.66396477 -38.48001101 28.66396477 -39.9375 24 C-40.0057214 20.72537296 -39.78894879 19.68052948 -38 17 C-35.48144531 15.21655273 -35.48144531 15.21655273 -32.328125 13.43359375 C-30.61882812 12.4580957 -30.61882812 12.4580957 -28.875 11.46289062 C-27.66672787 10.78765088 -26.45839401 10.1125216 -25.25 9.4375 C-24.0567508 8.75941444 -22.86403626 8.08038711 -21.671875 7.40039062 C-5.42869567 -1.80956522 -5.42869567 -1.80956522 0 0 Z " fill="#1D2E3E" transform="translate(348,94)"/>
<path d="M0 0 C1.31483871 -0.00315216 2.62967743 -0.00630432 3.98435974 -0.009552 C5.43106113 -0.00776204 6.87776221 -0.00571104 8.32446289 -0.00341797 C9.79797888 -0.00409111 11.27149477 -0.00506122 12.74501038 -0.00631714 C15.83783014 -0.0077941 18.93062108 -0.00563992 22.0234375 -0.00097656 C25.99270649 0.00471575 29.96190779 0.00144488 33.93117428 -0.00454903 C36.9757183 -0.00815894 40.02024622 -0.00701398 43.06479073 -0.00442123 C44.52845836 -0.0037529 45.99212744 -0.00457714 47.45579338 -0.00690079 C49.50047656 -0.00943375 51.54516485 -0.00489014 53.58984375 0 C54.75486923 0.00079559 55.91989471 0.00159119 57.120224 0.00241089 C59.85961914 0.12939453 59.85961914 0.12939453 61.85961914 1.12939453 C61.91748582 4.9209975 61.95316968 8.71248764 61.98461914 12.50439453 C62.00137695 13.58462891 62.01813477 14.66486328 62.03540039 15.77783203 C62.0418457 16.80908203 62.04829102 17.84033203 62.05493164 18.90283203 C62.06540527 19.85593262 62.07587891 20.8090332 62.08666992 21.79101562 C61.85961914 24.12939453 61.85961914 24.12939453 59.85961914 26.12939453 C57.120224 26.37663269 57.120224 26.37663269 53.58984375 26.37231445 C52.27185287 26.37539108 50.953862 26.37846771 49.59593201 26.38163757 C48.15127387 26.37474034 46.70661745 26.36747341 45.26196289 26.35986328 C43.78748108 26.35867161 42.3129985 26.35821829 40.83851624 26.35847473 C37.74743909 26.35690953 34.65647771 26.34861639 31.56542969 26.33520508 C27.59496161 26.31820028 23.62462067 26.31439113 19.65412045 26.31515026 C16.60961179 26.31487891 13.56513115 26.30940363 10.52063179 26.30214882 C9.05613988 26.29895763 7.59164478 26.2969937 6.12714958 26.29625511 C4.08475484 26.29409716 2.04237184 26.28456819 0 26.2746582 C-1.74634483 26.26894051 -1.74634483 26.26894051 -3.52796936 26.2631073 C-6.14038086 26.12939453 -6.14038086 26.12939453 -7.14038086 25.12939453 C-7.23984539 23.3608026 -7.27118303 21.58828002 -7.27319336 19.81689453 C-7.27448242 18.74181641 -7.27577148 17.66673828 -7.27709961 16.55908203 C-7.27129883 14.86138672 -7.27129883 14.86138672 -7.26538086 13.12939453 C-7.26924805 11.99759766 -7.27311523 10.86580078 -7.27709961 9.69970703 C-7.27581055 8.62462891 -7.27452148 7.54955078 -7.27319336 6.44189453 C-7.27206543 5.44802734 -7.2709375 4.45416016 -7.26977539 3.43017578 C-7.00995837 -1.18966505 -3.9657544 0.00271006 0 0 Z " fill="#FBBC31" transform="translate(145.140380859375,48.87060546875)"/>
<path d="M0 0 C0.75508347 -0.00700928 1.51016693 -0.01401855 2.28813171 -0.02124023 C4.774416 -0.0387904 7.25955454 -0.02721007 9.74584961 -0.01367188 C11.4779024 -0.01636738 13.20995372 -0.0202503 14.94200134 -0.02526855 C18.56760094 -0.0311593 22.19280574 -0.02261347 25.81835938 -0.00390625 C30.46469771 0.01890036 35.11011269 0.00574712 39.75641727 -0.01819611 C43.33124244 -0.03265115 46.9058487 -0.0280498 50.48068047 -0.01768494 C52.19389391 -0.01501771 53.90712727 -0.01828729 55.62031746 -0.02760315 C58.01434105 -0.03776616 60.40686904 -0.02227386 62.80078125 0 C63.86146317 -0.01214539 63.86146317 -0.01214539 64.943573 -0.02453613 C68.27625747 0.03289079 70.06850661 0.31938598 72.77537537 2.32727051 C75.0481652 5.5177156 74.89027424 7.70483454 74.33569336 11.51757812 C71.92913331 14.13480909 70.44237627 14.50560133 66.88244629 14.90525818 C65.48614707 14.92607256 64.08954214 14.93038552 62.69311523 14.92163086 C61.92842422 14.92849411 61.16373322 14.93535736 60.37586975 14.94242859 C57.85187132 14.96070823 55.32849369 14.95685799 52.80444336 14.95117188 C51.04854123 14.95573277 49.2926409 14.96103807 47.53674316 14.96705627 C43.85816186 14.97598937 40.17979764 14.97356161 36.5012207 14.96362305 C31.78650932 14.95212648 27.07254613 14.97235404 22.35793304 15.00154018 C18.73251587 15.01988217 15.10727871 15.01961386 11.48182678 15.01390266 C9.74348398 15.01374924 8.00512914 15.01981113 6.26683044 15.03219414 C3.83683238 15.04706697 1.40822589 15.03645614 -1.02172852 15.01928711 C-1.73977158 15.02895508 -2.45781464 15.03862305 -3.19761658 15.04858398 C-6.57880227 14.99853999 -8.37541065 14.73566688 -11.10681152 12.67372131 C-12.66430664 10.51757812 -12.66430664 10.51757812 -13.22680664 7.51757812 C-12.66430664 4.51757812 -12.66430664 4.51757812 -10.60816956 2.36242676 C-6.99732662 0.09959766 -4.12954055 -0.04742124 0 0 Z " fill="#263645" transform="translate(177.664306640625,267.482421875)"/>
<path d="M0 0 C0.76454498 -0.00511093 1.52908997 -0.01022186 2.31680298 -0.01548767 C4.84612845 -0.02939681 7.37518183 -0.02842593 9.90454102 -0.02612305 C11.66187135 -0.03000928 13.41920075 -0.0343438 15.17652893 -0.03910828 C18.86104374 -0.04657334 22.54546274 -0.04627716 26.22998047 -0.04101562 C30.95243779 -0.03522082 35.67450294 -0.05215074 40.39689541 -0.0753603 C44.02657872 -0.09008983 47.65616742 -0.09097041 51.28587532 -0.08785057 C53.02700642 -0.08836418 54.76814276 -0.09360944 56.50924492 -0.10366249 C58.94392273 -0.11599452 61.37783452 -0.10925508 63.8125 -0.09765625 C64.89192116 -0.10912186 64.89192116 -0.10912186 65.9931488 -0.12081909 C69.05143074 -0.08860352 71.20187064 0.13146299 73.92225647 1.57917786 C75.47094727 3.2746582 75.47094727 3.2746582 75.90844727 6.7746582 C75.47094727 10.2746582 75.47094727 10.2746582 74.42663574 11.96815491 C71.39780175 13.99157614 68.26399088 13.70007849 64.74243164 13.67871094 C63.95677322 13.68557419 63.17111481 13.69243744 62.36164856 13.69950867 C59.76248141 13.71782281 57.16391514 13.7139331 54.56469727 13.70825195 C52.76012983 13.71281123 50.95556413 13.71811604 49.15100098 13.72413635 C45.36809232 13.73307627 41.58539469 13.73063398 37.80249023 13.72070312 C32.94977622 13.70920645 28.09778909 13.72943091 23.24517059 13.75862026 C19.51856851 13.77694682 15.7921418 13.77669702 12.06550598 13.77098274 C10.27609741 13.77082912 8.48667724 13.77690686 6.6973114 13.78927422 C4.19756146 13.80411772 1.69916969 13.79355771 -0.80053711 13.77636719 C-1.54244797 13.78603516 -2.28435883 13.79570312 -3.04875183 13.80566406 C-6.28875623 13.75889904 -8.07116808 13.68975217 -10.51989746 11.46986389 C-12.05473159 8.13115407 -11.43241873 5.75906991 -10.52905273 2.2746582 C-6.89065748 -0.15093863 -4.20514201 -0.01443644 0 0 Z " fill="#1F3040" transform="translate(176.529052734375,203.725341796875)"/>
<path d="M0 0 C0.78565842 -0.00525696 1.57131683 -0.01051392 2.38078308 -0.01593018 C4.97996858 -0.02914307 7.57854255 -0.02038775 10.17773438 -0.01025391 C11.982301 -0.01227428 13.78686684 -0.0151854 15.59143066 -0.01895142 C19.37434662 -0.02337651 23.15705013 -0.01693779 26.93994141 -0.00292969 C31.79255329 0.01416235 36.64466743 0.00432215 41.49726105 -0.01364708 C45.22385417 -0.02447994 48.950329 -0.02104088 52.67692566 -0.0132637 C54.46632445 -0.01126031 56.25573393 -0.01372582 58.04512024 -0.02070236 C60.5446931 -0.02830873 63.0434563 -0.01672461 65.54296875 0 C66.28487961 -0.00607269 67.02679047 -0.01214539 67.79118347 -0.0184021 C70.70074557 0.0177231 72.76765349 0.05185344 75.22717285 1.69369507 C77.02761407 4.61507142 76.68580115 7.0736494 76.27148438 10.38818359 C73.87088766 13.01156116 72.37702062 13.37633553 68.8182373 13.77586365 C67.42193808 13.79667803 66.02533316 13.80099099 64.62890625 13.79223633 C63.86421524 13.79909958 63.09952423 13.80596283 62.31166077 13.81303406 C59.78766233 13.8313137 57.2642847 13.82746346 54.74023438 13.82177734 C52.98433225 13.82633824 51.22843191 13.83164354 49.47253418 13.83766174 C45.79395288 13.84659484 42.11558866 13.84416708 38.43701172 13.83422852 C33.72230033 13.82273195 29.00833714 13.84295951 24.29372406 13.87214565 C20.66830688 13.89048764 17.04306972 13.89021933 13.4176178 13.88450813 C11.679275 13.88435471 9.94092016 13.8904166 8.20262146 13.90279961 C5.77262339 13.91767244 3.3440169 13.90706161 0.9140625 13.88989258 C0.19601944 13.89956055 -0.52202362 13.90922852 -1.26182556 13.91918945 C-4.64231326 13.86915579 -6.44314513 13.60246914 -9.17883301 11.54823303 C-11.26727808 8.63722109 -11.25060063 6.8936115 -10.72851562 3.38818359 C-8.19881018 -0.63132763 -4.2735284 -0.03497971 0 0 Z " fill="#1E2F3F" transform="translate(175.728515625,139.61181640625)"/>
<path d="M0 0 C7.92 0 15.84 0 24 0 C24.06895947 5.46312242 24.12866576 10.9247282 24.16479492 16.38793945 C24.17985946 18.24541345 24.20031509 20.10285201 24.22631836 21.96020508 C24.26280459 24.63371539 24.2797497 27.30675444 24.29296875 29.98046875 C24.30845261 30.80773972 24.32393646 31.63501068 24.33988953 32.48735046 C24.34122341 37.08150023 24.17920585 40.38529872 21 44 C19.0546875 44.64697266 19.0546875 44.64697266 16.875 44.6640625 C16.08609375 44.67050781 15.2971875 44.67695313 14.484375 44.68359375 C13.66453125 44.66425781 12.8446875 44.64492188 12 44.625 C11.18015625 44.64433594 10.3603125 44.66367187 9.515625 44.68359375 C8.72671875 44.67714844 7.9378125 44.67070312 7.125 44.6640625 C6.04605469 44.65560303 6.04605469 44.65560303 4.9453125 44.64697266 C3 44 3 44 1.26049805 42.0222168 C-0.45148312 37.91750736 -0.37535065 34.38196639 -0.29296875 29.98046875 C-0.28872391 29.12189774 -0.28447906 28.26332672 -0.28010559 27.3787384 C-0.26336995 24.64800086 -0.22572766 21.91801288 -0.1875 19.1875 C-0.17244653 17.3313909 -0.15875928 15.47527018 -0.14648438 13.61914062 C-0.11604026 9.07890897 -0.0573108 4.54028926 0 0 Z " fill="#F56C83" transform="translate(379,217)"/>
<path d="M0 0 C7.92 0 15.84 0 24 0 C24.06903882 5.16001225 24.12872035 10.31840876 24.16479492 15.47851562 C24.17983995 17.23215173 24.20028104 18.98575047 24.22631836 20.73925781 C24.26289121 23.26637009 24.2797692 25.79298296 24.29296875 28.3203125 C24.30845261 29.09867462 24.32393646 29.87703674 24.33988953 30.6789856 C24.34137648 35.53709867 23.60494368 38.74889666 21 43 C18.88972389 45.11027611 14.52571663 44.276952 11.625 44.3125 C10.84382813 44.34150391 10.06265625 44.37050781 9.2578125 44.40039062 C3.55153091 44.46390232 3.55153091 44.46390232 1.26977539 42.54467773 C-0.65080171 38.69576885 -0.36984653 35.10102825 -0.29296875 30.859375 C-0.28872391 29.97719299 -0.28447906 29.09501099 -0.28010559 28.18609619 C-0.26333838 25.37375117 -0.22568998 22.56212774 -0.1875 19.75 C-0.17245062 17.8411562 -0.15876266 15.93230114 -0.14648438 14.0234375 C-0.11599538 9.34845797 -0.0572713 4.67503485 0 0 Z " fill="#F36C83" transform="translate(379,336)"/>
<path d="M0 0 C7.59 0 15.18 0 23 0 C23.06890065 5.48142914 23.12862443 10.96135381 23.16479492 16.44287109 C23.17987414 18.30718072 23.20034061 20.17145492 23.22631836 22.03564453 C23.26273996 24.71656033 23.2797349 27.3970068 23.29296875 30.078125 C23.30845261 30.91055725 23.32393646 31.7429895 23.33988953 32.60064697 C23.34089506 36.06424927 23.30365907 38.39838382 21.72583008 41.52441406 C18.76628749 44.05482507 15.19948146 43.57411315 11.5 43.5 C10.72785156 43.51546875 9.95570313 43.5309375 9.16015625 43.546875 C3.59449254 43.50829154 3.59449254 43.50829154 1.27416992 41.52441406 C-0.63437305 37.74316587 -0.37064372 34.25403262 -0.29296875 30.078125 C-0.28872391 29.21813904 -0.28447906 28.35815308 -0.28010559 27.47210693 C-0.26334116 24.7310833 -0.22569345 21.99080061 -0.1875 19.25 C-0.17245025 17.38933355 -0.15876235 15.52865555 -0.14648438 13.66796875 C-0.1159993 9.11146553 -0.0572752 4.55656003 0 0 Z " fill="#F86D84" transform="translate(260,337)"/>
<path d="M0 0 C2.375 1.5625 2.375 1.5625 4 4 C3.69477693 9.3021037 2.25021434 12.96142683 -0.38671875 17.52734375 C-0.72621048 18.11995499 -1.06570221 18.71256622 -1.41548157 19.32313538 C-2.13223287 20.56902161 -2.85442873 21.81179003 -3.58178711 23.05151367 C-4.6786638 24.92242833 -5.75759393 26.80278664 -6.83398438 28.68554688 C-17.00811583 46.35047255 -17.00811583 46.35047255 -21.875 47.9375 C-26.66701524 46.49989543 -29.48551015 43.45558778 -33 40 C-33.74378906 39.34 -34.48757812 38.68 -35.25390625 38 C-38.72209349 34.82341348 -40.74616583 32.80158158 -42.1875 28.25 C-42 25 -42 25 -41 22.5625 C-39 21 -39 21 -35.75 20.3125 C-31.06633686 21.17117158 -29.5198584 22.96336697 -26.48046875 26.46875 C-25.99191406 26.9740625 -25.50335938 27.479375 -25 28 C-24.34 28 -23.68 28 -23 28 C-22.5968457 27.25838623 -22.19369141 26.51677246 -21.77832031 25.75268555 C-20.27215874 22.99232653 -18.75797396 20.23657198 -17.23828125 17.48364258 C-16.58335745 16.29335741 -15.93162087 15.10131257 -15.28320312 13.9074707 C-14.34833746 12.18757597 -13.40086139 10.47455483 -12.453125 8.76171875 C-11.88754883 7.73006592 -11.32197266 6.69841309 -10.73925781 5.63549805 C-7.91503821 1.35595698 -5.25984983 -0.92047372 0 0 Z " fill="#223242" transform="translate(134,187)"/>
<path d="M0 0 C3.0625 0.4375 3.0625 0.4375 5.5 2 C7.25635661 4.73991631 7.29793944 6.07277829 6.75561523 9.2277832 C5.16831997 14.28823035 2.11189037 18.74431402 -0.625 23.25 C-1.23794922 24.27931641 -1.85089844 25.30863281 -2.48242188 26.36914062 C-3.70047379 28.4112828 -4.92547206 30.44929936 -6.15771484 32.48291016 C-7.33112863 34.43087361 -8.48817222 36.38880574 -9.62744141 38.35693359 C-10.14870605 39.2536377 -10.6699707 40.1503418 -11.20703125 41.07421875 C-11.66311768 41.86916748 -12.1192041 42.66411621 -12.58911133 43.4831543 C-13.9375 45.4375 -13.9375 45.4375 -16.9375 47.4375 C-19.96843006 47.84532322 -21.39690766 47.80074722 -23.95800781 46.07983398 C-26.05097109 44.0262658 -28.13539582 41.96954878 -30.1875 39.875 C-30.9196875 39.17052734 -31.651875 38.46605469 -32.40625 37.74023438 C-38.28433034 31.8349407 -38.28433034 31.8349407 -39.0234375 27.5625 C-38.9375 24.4375 -38.9375 24.4375 -37.3125 22 C-34.46729249 20.12815296 -33.28558706 20.04331389 -29.9375 20.4375 C-27.69921875 21.8984375 -27.69921875 21.8984375 -25.625 23.8125 C-24.92761719 24.43898437 -24.23023437 25.06546875 -23.51171875 25.7109375 C-21.9375 27.4375 -21.9375 27.4375 -21.9375 29.4375 C-21.2775 29.4375 -20.6175 29.4375 -19.9375 29.4375 C-19.66349365 28.7151416 -19.3894873 27.9927832 -19.10717773 27.24853516 C-17.15104394 22.54744467 -14.52794328 18.2251287 -12 13.8125 C-11.46181641 12.85859375 -10.92363281 11.9046875 -10.36914062 10.921875 C-9.84642578 10.00664062 -9.32371094 9.09140625 -8.78515625 8.1484375 C-8.31086182 7.31618652 -7.83656738 6.48393555 -7.34790039 5.62646484 C-5.17154141 2.24871954 -4.06168962 0.6049325 0 0 Z " fill="#223242" transform="translate(130.9375,122.5625)"/>
<path d="M0 0 C3.125 0.375 3.125 0.375 5.5 2.0625 C7.48346565 4.8851242 7.47541776 5.98208084 7.125 9.375 C5.95092773 11.95532227 5.95092773 11.95532227 4.30859375 14.69140625 C3.70853516 15.70396484 3.10847656 16.71652344 2.49023438 17.75976562 C1.85408203 18.80841797 1.21792969 19.85707031 0.5625 20.9375 C-0.04658203 21.95908203 -0.65566406 22.98066406 -1.28320312 24.03320312 C-2.51538243 26.09987423 -3.75320011 28.16319388 -4.99658203 30.22314453 C-7.50845716 34.43789732 -9.91527388 38.71093847 -12.31225586 42.99194336 C-13.875 45.375 -13.875 45.375 -16.875 47.375 C-21.26239177 47.48928806 -23.5500706 46.06149267 -26.70703125 43.2421875 C-28.04700476 41.9247012 -29.37354622 40.59343762 -30.6875 39.25 C-31.36748047 38.59773438 -32.04746094 37.94546875 -32.74804688 37.2734375 C-35.97739948 34.02798643 -37.69555093 32.03499619 -38.91796875 27.5390625 C-38.875 24.375 -38.875 24.375 -37.375 21.875 C-34.875 20.375 -34.875 20.375 -31.5625 20.1875 C-26.67213563 21.7623631 -24.1657838 24.54408755 -20.875 28.375 C-20.3903125 27.58738281 -19.905625 26.79976563 -19.40625 25.98828125 C-18.36938648 24.30337803 -17.33247455 22.61850424 -16.29443359 20.93432617 C-14.39859644 17.85722386 -12.50904532 14.776601 -10.6328125 11.6875 C-10.27509766 11.10057373 -9.91738281 10.51364746 -9.54882812 9.90893555 C-8.54379599 8.25938211 -7.5413694 6.60824202 -6.5390625 4.95703125 C-3.65130162 0.47625673 -3.65130162 0.47625673 0 0 Z " fill="#213241" transform="translate(130.875,251.625)"/>
</svg>
